HIERARCHY
ROOT newVegas:Hips
{
	OFFSET 0.000000 96.479958 0.000000
	CHANNELS 6 Xposition Yposition Zposition Xrotation Yrotation Zrotation
	JOINT newVegas:Pelvis
	{
		OFFSET 0.000000 0.000000 0.000000
		CHANNELS 3 Xrotation Yrotation Zrotation
		JOINT newVegas:LeftUpLeg
		{
			OFFSET 18.735201 -5.666702 -4.541200
			CHANNELS 3 Xrotation Yrotation Zrotation
			JOINT newVegas:LeftLeg
			{
				OFFSET -0.021200 -31.938179 0.493100
				CHANNELS 3 Xrotation Yrotation Zrotation
				JOINT newVegas:LeftFoot
				{
					OFFSET 0.021200 -31.938179 -4.336299
					CHANNELS 3 Xrotation Yrotation Zrotation
					JOINT newVegas:LeftToeBase
					{
						OFFSET 0.943001 -26.722000 15.023500
						CHANNELS 3 Xrotation Yrotation Zrotation
						End Site
						{
							OFFSET 0.000000 30.670183 0.000000
						}
					}
				}
				JOINT newVegas:Left_PantLeg
				{
					OFFSET 0.663870 -9.044666 -1.108900
					CHANNELS 3 Xrotation Yrotation Zrotation
					End Site
					{
						OFFSET 1.415995 20.635357 0.000000
					}
				}
			}
		}
		JOINT newVegas:RightUpLeg
		{
			OFFSET -18.735201 -5.666702 -4.541200
			CHANNELS 3 Xrotation Yrotation Zrotation
			JOINT newVegas:RightLeg
			{
				OFFSET 0.018946 -31.938133 0.493100
				CHANNELS 3 Xrotation Yrotation Zrotation
				JOINT newVegas:RightFoot
				{
					OFFSET -0.018946 -31.938126 -4.336299
					CHANNELS 3 Xrotation Yrotation Zrotation
					JOINT newVegas:RightToeBase
					{
						OFFSET -0.943001 -26.722004 15.023500
						CHANNELS 3 Xrotation Yrotation Zrotation
						End Site
						{
							OFFSET 0.000000 30.670187 0.000000
						}
					}
				}
				JOINT newVegas:Right_PantLeg
				{
					OFFSET -0.661674 -9.044716 -1.108900
					CHANNELS 3 Xrotation Yrotation Zrotation
					End Site
					{
						OFFSET -1.415958 20.635269 0.000000
					}
				}
			}
		}
	}
	JOINT newVegas:Spine
	{
		OFFSET 0.000000 10.199997 -0.299500
		CHANNELS 3 Xrotation Yrotation Zrotation
		JOINT newVegas:Spine1
		{
			OFFSET 0.000000 11.900002 -1.516600
			CHANNELS 3 Xrotation Yrotation Zrotation
			JOINT newVegas:Spine2
			{
				OFFSET 0.000000 13.600006 -2.842500
				CHANNELS 3 Xrotation Yrotation Zrotation
				JOINT newVegas:Neck
				{
					OFFSET 0.000000 9.624100 -2.890100
					CHANNELS 3 Xrotation Yrotation Zrotation
					JOINT newVegas:Head
					{
						OFFSET 0.000000 14.068802 -1.351900
						CHANNELS 3 Xrotation Yrotation Zrotation
						JOINT newVegas:Hair_Back
						{
							OFFSET 0.000000 3.231903 -17.524799
							CHANNELS 3 Xrotation Yrotation Zrotation
							End Site
							{
								OFFSET 0.000000 19.849884 0.000000
							}
						}
						JOINT newVegas:Hair_Front
						{
							OFFSET 0.000000 31.260406 4.573800
							CHANNELS 3 Xrotation Yrotation Zrotation
							JOINT newVegas:Hair_Front1
							{
								OFFSET 0.000000 2.284103 11.993300
								CHANNELS 3 Xrotation Yrotation Zrotation
								JOINT newVegas:Hair_Front2
								{
									OFFSET 0.000000 2.284103 11.993300
									CHANNELS 3 Xrotation Yrotation Zrotation
									End Site
									{
										OFFSET 0.000000 12.208862 0.000000
									}
								}
							}
						}
						JOINT newVegas:Jowel
						{
							OFFSET 0.000000 -7.458206 6.864100
							CHANNELS 3 Xrotation Yrotation Zrotation
							End Site
							{
								OFFSET 0.000000 19.849884 0.000000
							}
						}
					}
				}
				JOINT newVegas:LeftShoulder
				{
					OFFSET 15.263000 10.923401 -0.547700
					CHANNELS 3 Xrotation Yrotation Zrotation
					JOINT newVegas:LeftArm
					{
						OFFSET 25.438599 -2.830597 -13.032500
						CHANNELS 3 Xrotation Yrotation Zrotation
						JOINT newVegas:LeftForeArm
						{
							OFFSET 29.960503 0.000000 0.000000
							CHANNELS 3 Xrotation Yrotation Zrotation
							JOINT newVegas:LeftHand
							{
								OFFSET 27.849251 0.000000 0.000000
								CHANNELS 3 Xrotation Yrotation Zrotation
								JOINT newVegas:LeftHandThumb1
								{
									OFFSET 4.487587 -3.305161 6.305391
									CHANNELS 3 Xrotation Yrotation Zrotation
									JOINT newVegas:LeftHandThumb2
									{
										OFFSET 5.480453 -3.164139 3.164143
										CHANNELS 3 Xrotation Yrotation Zrotation
										JOINT newVegas:LeftHandThumb3
										{
											OFFSET 5.159721 -2.978973 2.978967
											CHANNELS 3 Xrotation Yrotation Zrotation
											End Site
											{
												OFFSET 2.494507 5.926697 1.738678
											}
										}
									}
								}
								JOINT newVegas:LeftHandIndex1
								{
									OFFSET 18.578728 -0.527832 5.208049
									CHANNELS 3 Xrotation Yrotation Zrotation
									JOINT newVegas:LeftHandIndex2
									{
										OFFSET 3.192009 0.000000 0.000000
										CHANNELS 3 Xrotation Yrotation Zrotation
										JOINT newVegas:LeftHandIndex3
										{
											OFFSET 3.835129 0.000000 0.000000
											CHANNELS 3 Xrotation Yrotation Zrotation
											End Site
											{
												OFFSET -0.034599 3.816971 0.371180
											}
										}
									}
								}
								JOINT newVegas:LeftHandMiddle1
								{
									OFFSET 18.476105 0.000000 0.000000
									CHANNELS 3 Xrotation Yrotation Zrotation
									JOINT newVegas:LeftHandMiddle2
									{
										OFFSET 3.324875 0.000000 0.000000
										CHANNELS 3 Xrotation Yrotation Zrotation
										JOINT newVegas:LeftHandMiddle3
										{
											OFFSET 4.596550 0.000000 0.000000
											CHANNELS 3 Xrotation Yrotation Zrotation
											End Site
											{
												OFFSET 0.057701 4.578827 0.399218
											}
										}
									}
								}
								JOINT newVegas:LeftHandRing1
								{
									OFFSET 17.732719 0.121887 -4.201567
									CHANNELS 3 Xrotation Yrotation Zrotation
									JOINT newVegas:LeftHandRing2
									{
										OFFSET 2.733170 0.000000 0.000000
										CHANNELS 3 Xrotation Yrotation Zrotation
										JOINT newVegas:LeftHandRing3
										{
											OFFSET 3.178268 0.000000 0.000000
											CHANNELS 3 Xrotation Yrotation Zrotation
											End Site
											{
												OFFSET 0.119102 3.170624 0.185394
											}
										}
									}
								}
								JOINT newVegas:LeftHandPinky1
								{
									OFFSET 15.989624 -0.606689 -7.535461
									CHANNELS 3 Xrotation Yrotation Zrotation
									JOINT newVegas:LeftHandPinky2
									{
										OFFSET 2.538986 0.000000 0.000000
										CHANNELS 3 Xrotation Yrotation Zrotation
										JOINT newVegas:LeftHandPinky3
										{
											OFFSET 2.593102 0.000000 0.000000
											CHANNELS 3 Xrotation Yrotation Zrotation
											End Site
											{
												OFFSET -0.150902 2.584198 0.152708
											}
										}
									}
								}
							}
							JOINT newVegas:Left_Sleeve
							{
								OFFSET 0.267448 -0.649796 0.577675
								CHANNELS 3 Xrotation Yrotation Zrotation
								End Site
								{
									OFFSET 0.000000 15.991241 0.000000
								}
							}
							JOINT newVegas:Left_CapeC
							{
								OFFSET 15.715958 -8.608795 -6.935905
								CHANNELS 3 Xrotation Yrotation Zrotation
								JOINT newVegas:Left_CapeC1
								{
									OFFSET 0.000000 -8.688499 0.000000
									CHANNELS 3 Xrotation Yrotation Zrotation
									End Site
									{
										OFFSET 0.000000 8.688499 0.000000
									}
								}
							}
						}
						JOINT newVegas:Left_CapeB
						{
							OFFSET 26.118385 -8.608795 -7.079235
							CHANNELS 3 Xrotation Yrotation Zrotation
							JOINT newVegas:Left_CapeB1
							{
								OFFSET 0.000000 -8.688499 0.000000
								CHANNELS 3 Xrotation Yrotation Zrotation
								End Site
								{
									OFFSET 0.000000 8.688499 0.000000
								}
							}
						}
						JOINT newVegas:Left_CapeA
						{
							OFFSET 5.115639 -8.608795 -10.395809
							CHANNELS 3 Xrotation Yrotation Zrotation
							JOINT newVegas:Left_CapeA1
							{
								OFFSET 0.000000 -8.688499 0.000000
								CHANNELS 3 Xrotation Yrotation Zrotation
								End Site
								{
									OFFSET 0.000000 8.688499 0.000000
								}
							}
						}
					}
				}
				JOINT newVegas:RightShoulder
				{
					OFFSET -15.263000 10.923401 -0.547700
					CHANNELS 3 Xrotation Yrotation Zrotation
					JOINT newVegas:RightArm
					{
						OFFSET -25.438599 -2.830597 -13.032500
						CHANNELS 3 Xrotation Yrotation Zrotation
						JOINT newVegas:RightForeArm
						{
							OFFSET -29.960503 0.000000 0.000000
							CHANNELS 3 Xrotation Yrotation Zrotation
							JOINT newVegas:RightHand
							{
								OFFSET -27.849251 0.000000 0.000000
								CHANNELS 3 Xrotation Yrotation Zrotation
								JOINT newVegas:RightHandThumb1
								{
									OFFSET -4.487587 -3.305161 6.305391
									CHANNELS 3 Xrotation Yrotation Zrotation
									JOINT newVegas:RightHandThumb2
									{
										OFFSET -5.480453 -3.164139 3.164143
										CHANNELS 3 Xrotation Yrotation Zrotation
										JOINT newVegas:RightHandThumb3
										{
											OFFSET -5.159721 -2.978973 2.978967
											CHANNELS 3 Xrotation Yrotation Zrotation
											End Site
											{
												OFFSET -2.494507 5.926697 1.738678
											}
										}
									}
								}
								JOINT newVegas:RightHandIndex1
								{
									OFFSET -18.578728 -0.527832 5.208049
									CHANNELS 3 Xrotation Yrotation Zrotation
									JOINT newVegas:RightHandIndex2
									{
										OFFSET -3.192009 0.000000 0.000000
										CHANNELS 3 Xrotation Yrotation Zrotation
										JOINT newVegas:RightHandIndex3
										{
											OFFSET -3.835129 0.000000 0.000000
											CHANNELS 3 Xrotation Yrotation Zrotation
											End Site
											{
												OFFSET 0.034599 3.816971 0.371180
											}
										}
									}
								}
								JOINT newVegas:RightHandMiddle1
								{
									OFFSET -18.476105 0.000000 0.000000
									CHANNELS 3 Xrotation Yrotation Zrotation
									JOINT newVegas:RightHandMiddle2
									{
										OFFSET -3.324875 0.000000 0.000000
										CHANNELS 3 Xrotation Yrotation Zrotation
										JOINT newVegas:RightHandMiddle3
										{
											OFFSET -4.596550 0.000000 0.000000
											CHANNELS 3 Xrotation Yrotation Zrotation
											End Site
											{
												OFFSET -0.057701 4.578827 0.399218
											}
										}
									}
								}
								JOINT newVegas:RightHandRing1
								{
									OFFSET -17.732719 0.121887 -4.201567
									CHANNELS 3 Xrotation Yrotation Zrotation
									JOINT newVegas:RightHandRing2
									{
										OFFSET -2.733170 0.000000 0.000000
										CHANNELS 3 Xrotation Yrotation Zrotation
										JOINT newVegas:RightHandRing3
										{
											OFFSET -3.178268 0.000000 0.000000
											CHANNELS 3 Xrotation Yrotation Zrotation
											End Site
											{
												OFFSET -0.119102 3.170624 0.185394
											}
										}
									}
								}
								JOINT newVegas:RightHandPinky1
								{
									OFFSET -15.989624 -0.606689 -7.535461
									CHANNELS 3 Xrotation Yrotation Zrotation
									JOINT newVegas:RightHandPinky2
									{
										OFFSET -2.538986 0.000000 0.000000
										CHANNELS 3 Xrotation Yrotation Zrotation
										JOINT newVegas:RightHandPinky3
										{
											OFFSET -2.593102 0.000000 0.000000
											CHANNELS 3 Xrotation Yrotation Zrotation
											End Site
											{
												OFFSET 0.150902 2.584198 0.152708
											}
										}
									}
								}
							}
							JOINT newVegas:Right_CapeC
							{
								OFFSET -15.715958 -8.608795 -6.935905
								CHANNELS 3 Xrotation Yrotation Zrotation
								JOINT newVegas:Right_CapeC1
								{
									OFFSET 0.000000 -8.688499 0.000000
									CHANNELS 3 Xrotation Yrotation Zrotation
									End Site
									{
										OFFSET 0.000000 8.688499 0.000000
									}
								}
							}
							JOINT newVegas:Right_Sleeve
							{
								OFFSET -0.267448 -0.649994 0.577675
								CHANNELS 3 Xrotation Yrotation Zrotation
								End Site
								{
									OFFSET 0.000000 15.991302 0.000000
								}
							}
						}
						JOINT newVegas:Right_CapeA
						{
							OFFSET -5.115540 -8.608795 -10.395824
							CHANNELS 3 Xrotation Yrotation Zrotation
							JOINT newVegas:Right_CapeA1
							{
								OFFSET 0.000000 -8.688499 0.000000
								CHANNELS 3 Xrotation Yrotation Zrotation
								End Site
								{
									OFFSET 0.000000 8.688499 0.000000
								}
							}
						}
						JOINT newVegas:Right_CapeB
						{
							OFFSET -26.118187 -8.608795 -7.079266
							CHANNELS 3 Xrotation Yrotation Zrotation
							JOINT newVegas:Right_CapeB1
							{
								OFFSET 0.000000 -8.688499 0.000000
								CHANNELS 3 Xrotation Yrotation Zrotation
								End Site
								{
									OFFSET 0.000000 8.688499 0.000000
								}
							}
						}
					}
				}
				JOINT newVegas:Left_Collar
				{
					OFFSET 18.625099 8.655502 8.828100
					CHANNELS 3 Xrotation Yrotation Zrotation
					JOINT newVegas:Left_Collar1
					{
						OFFSET 14.783401 10.540405 -1.259500
						CHANNELS 3 Xrotation Yrotation Zrotation
						End Site
						{
							OFFSET 0.000000 18.199875 0.000000
						}
					}
				}
				JOINT newVegas:Collar_Back
				{
					OFFSET 0.000000 15.630707 -20.132601
					CHANNELS 3 Xrotation Yrotation Zrotation
					End Site
					{
						OFFSET 0.000000 22.523010 0.000000
					}
				}
				JOINT newVegas:Left_Peck
				{
					OFFSET 17.239599 -5.132599 25.482599
					CHANNELS 3 Xrotation Yrotation Zrotation
					End Site
					{
						OFFSET 0.000000 22.523010 0.000000
					}
				}
				JOINT newVegas:Right_Peck
				{
					OFFSET -17.239599 -5.132202 25.482599
					CHANNELS 3 Xrotation Yrotation Zrotation
					End Site
					{
						OFFSET 0.000000 22.523010 0.000000
					}
				}
				JOINT newVegas:Right_Collar
				{
					OFFSET -18.625099 8.655792 8.828100
					CHANNELS 3 Xrotation Yrotation Zrotation
					JOINT newVegas:Right_Collar1
					{
						OFFSET -14.783401 10.539993 -1.259500
						CHANNELS 3 Xrotation Yrotation Zrotation
						End Site
						{
							OFFSET 0.000000 18.199631 0.000000
						}
					}
				}
			}
		}
		JOINT newVegas:Belly
		{
			OFFSET 0.000000 -6.540398 9.014299
			CHANNELS 3 Xrotation Yrotation Zrotation
			End Site
			{
				OFFSET 0.000000 11.566666 0.000000
			}
		}
	}
	JOINT newVegas:ElvisFacialAnim_Joint
	{
		OFFSET 1.000000 -95.330101 -8.825800
		CHANNELS 3 Xrotation Yrotation Zrotation
		End Site
		{
			OFFSET 0.000000 35.315800 0.000000
		}
	}
}
MOTION
Frames: 4
Frame Time: 0.016667
0.049034 95.261009 4.396928 -3.753863 -5.231598 -3.174703 -0.000000 0.000000 0.000000 -14.964680 13.503363 12.520497 20.413689 1.789435 4.640092 -2.578164 1.107092 -9.506670 0.000000 0.000000 -0.000000 -0.000000 -0.000000 0.000000 4.367354 -10.114953 2.838654 4.869810 -9.673557 -3.267167 -4.784396 -1.880458 4.146743 0.000000 0.000000 0.000000 -0.000000 0.000004 -0.000000 3.311634 1.529444 2.151187 1.151563 0.341256 1.563088 1.124399 0.369601 1.558066 2.249490 -0.040871 0.188048 2.249492 -0.040870 0.188048 -0.000000 0.000000 -0.000000 2.249492 -0.040868 0.188047 2.249420 -0.040873 0.188049 -0.000001 0.000000 -0.000000 -0.000000 0.000000 0.000000 1.046818 -17.441243 -12.316048 3.916270 -19.989267 -69.765232 0.000002 -1.459370 -0.000008 -33.230407 -1.364819 -6.186639 -0.663000 2.160318 4.832498 11.845357 25.425973 17.060310 0.000001 -0.000002 -0.000005 0.019863 -0.969580 -7.593529 0.267773 1.752584 -17.372561 0.000002 0.000000 0.000001 -0.076311 2.665775 -15.696833 0.268785 1.755798 -17.405528 0.000000 -0.000000 -0.000003 0.136907 3.641767 -21.133519 0.386305 2.093945 -20.903108 0.000001 0.000001 -0.000000 0.917890 5.560956 -27.127199 0.268802 1.755849 -17.405970 -0.000001 -0.000002 -0.000001 -0.000000 -0.000000 -0.000001 -0.000000 -0.000000 -0.000001 -0.000001 0.000000 -0.000001 0.000004 -0.000001 -0.000000 0.000005 0.000000 -0.000000 0.000004 -0.000001 -0.000000 0.000003 0.000000 -0.000000 1.209147 15.345166 14.705933 13.158855 27.555124 58.785177 -0.000002 6.693739 0.000011 -20.179094 -0.514089 6.782782 -1.665254 -0.174473 -4.219020 12.710932 -29.825349 -16.130940 -0.000001 -0.000003 0.000001 0.037224 1.273358 6.824661 0.213721 -1.396026 17.407034 -0.000000 0.000001 -0.000001 -0.136229 -2.205094 14.998897 0.214449 -1.398347 17.436875 -0.000002 0.000000 0.000002 0.030606 -3.075752 20.451063 0.308445 -1.668283 20.948528 -0.000000 0.000001 -0.000002 0.756729 -4.881349 26.474363 0.214460 -1.398379 17.437219 0.000001 -0.000000 -0.000003 -0.000003 -0.000000 -0.000000 -0.000003 -0.000000 -0.000000 -0.000003 -0.000000 -0.000000 -0.000001 0.000001 0.000000 -0.000000 0.000001 0.000001 -0.000001 0.000001 0.000000 -0.000000 0.000001 0.000001 0.000000 0.000000 0.000000 0.000000 0.000000 0.000000 0.000000 0.000000 0.000000 0.000000 0.000000 0.000000 0.000000 0.000000 0.000000 0.000000 0.000000 0.000000 0.000000 0.000000 0.000000 -0.000000 -0.000000 -0.000000 -0.000000 0.000000 0.000000 
0.043941 95.261192 4.385631 -3.775408 -5.377902 -3.209151 -0.000000 -0.000000 0.000000 -14.947113 13.511386 12.582216 20.496163 1.913107 4.612612 -2.651633 1.110342 -9.512018 0.000000 -0.000001 -0.000000 -0.000000 0.000001 0.000001 4.341797 -10.118922 2.890054 4.863089 -9.315856 -3.314876 -4.726091 -2.086548 4.118637 -0.000000 0.000000 0.000000 0.000000 0.000000 -0.000000 3.311619 1.529693 2.151659 1.151563 0.341255 1.563088 1.124399 0.369602 1.558065 2.255508 -0.040750 0.183647 2.255549 -0.040750 0.183646 0.000001 0.000000 -0.000000 2.255698 -0.040738 0.183643 2.255474 -0.040758 0.183646 -0.000002 0.000000 -0.000000 0.000001 0.000000 -0.000000 1.048150 -17.435432 -12.315648 3.889506 -20.129833 -69.771018 0.000004 -1.500340 0.000004 -33.176476 -1.403262 -6.179772 -0.731340 2.210478 4.906267 11.849518 25.426134 17.046988 -0.000000 -0.000003 -0.000005 0.037645 -0.954839 -7.569156 0.267780 1.752584 -17.372583 0.000002 -0.000000 -0.000001 -0.085750 2.628823 -15.661566 0.268445 1.754718 -17.394446 -0.000001 -0.000000 -0.000001 0.132376 3.630372 -21.141413 0.386305 2.093947 -20.903114 0.000001 -0.000001 -0.000000 0.910059 5.545738 -27.128188 0.268795 1.755843 -17.405986 0.000001 -0.000003 0.000000 -0.000001 0.000001 0.000000 -0.000001 0.000001 0.000000 -0.000002 0.000001 0.000000 0.000002 0.000000 0.000000 0.000002 0.000000 -0.000000 0.000002 0.000000 0.000000 0.000000 -0.000000 -0.000000 1.208452 15.358334 14.695765 13.135320 27.547107 58.785136 0.000001 6.665728 -0.000000 -20.179196 -0.509192 6.769469 -1.578889 0.146349 -3.612013 12.359104 -29.465942 -16.752499 -0.000001 -0.000003 0.000001 0.071399 1.294368 6.594601 0.207546 -1.376191 17.151855 -0.000003 0.000000 -0.000000 -0.135836 -2.183626 14.745349 0.208856 -1.380419 17.206131 0.000002 0.000001 0.000000 0.029730 -3.067568 20.320426 0.308041 -1.667210 20.934480 -0.000000 0.000001 -0.000002 0.766584 -4.905943 26.265064 0.214464 -1.398371 17.437237 -0.000002 0.000002 -0.000000 0.000002 0.000000 -0.000000 0.000002 -0.000000 -0.000001 0.000002 0.000000 -0.000000 -0.000003 0.000001 0.000000 -0.000003 0.000001 0.000001 -0.000003 0.000001 0.000000 -0.000003 0.000001 0.000001 0.000000 -0.000000 0.000000 0.000000 -0.000000 0.000000 0.000000 -0.000000 0.000000 0.000000 -0.000000 0.000000 0.000000 -0.000000 0.000000 0.000000 -0.000000 0.000000 0.000000 -0.000000 0.000000 -0.000000 0.000000 -0.000000 -0.000000 -0.000000 0.000000 
0.037637 95.258972 4.375753 -3.798566 -5.529569 -3.242842 0.000000 0.000000 0.000000 -14.929988 13.519527 12.646491 20.589631 2.040724 4.584399 -2.733012 1.114462 -9.522786 0.000000 -0.000001 -0.000000 -0.000001 -0.000001 0.000000 4.295996 -10.116477 2.935991 4.899205 -8.974989 -3.360919 -4.689323 -2.282661 4.094489 0.000000 -0.000000 -0.000000 0.000000 -0.000002 -0.000000 3.311627 1.530025 2.151424 1.151564 0.341254 1.563088 1.124399 0.369602 1.558065 2.262220 -0.040101 0.179541 2.262183 -0.040103 0.179543 0.000001 -0.000000 0.000000 2.262366 -0.040100 0.179542 2.262222 -0.040111 0.179544 -0.000001 0.000000 -0.000000 0.000001 -0.000000 0.000000 1.049203 -17.430817 -12.315336 3.861913 -20.202544 -69.781324 -0.000002 -1.523107 0.000011 -33.149555 -1.438203 -6.183285 -0.802499 2.237499 4.968518 11.855473 25.426387 17.027955 0.000004 -0.000003 -0.000003 0.044153 -0.951274 -7.556545 0.267775 1.752584 -17.372550 0.000002 0.000000 0.000001 -0.094894 2.594724 -15.647828 0.268341 1.754378 -17.391014 0.000000 0.000000 -0.000002 0.130834 3.627153 -21.159289 0.386301 2.093946 -20.903121 0.000001 -0.000001 0.000002 0.906114 5.538032 -27.131014 0.268793 1.755845 -17.405958 -0.000001 -0.000001 -0.000002 -0.000000 0.000000 0.000000 -0.000000 0.000000 0.000000 -0.000001 0.000001 0.000000 -0.000001 -0.000001 0.000001 -0.000000 0.000000 0.000000 -0.000001 -0.000001 0.000001 -0.000002 -0.000000 0.000000 1.206564 15.367494 14.694092 13.125057 27.554841 58.770759 0.000002 6.622046 -0.000017 -20.182837 -0.523824 6.785152 -1.413002 0.635818 -2.930306 11.971222 -29.040202 -17.421521 -0.000000 -0.000002 -0.000001 0.104998 1.310487 6.427155 0.200379 -1.352757 16.850789 -0.000001 0.000002 -0.000001 -0.135432 -2.165781 14.534663 0.201547 -1.356604 16.900285 -0.000000 -0.000001 0.000002 0.033627 -3.072505 20.193217 0.307461 -1.665701 20.914570 0.000001 0.000002 0.000001 0.776736 -4.930071 26.118688 0.214823 -1.399529 17.452351 -0.000002 0.000002 -0.000001 0.000001 0.000000 -0.000001 0.000001 0.000000 -0.000001 0.000001 0.000000 -0.000001 -0.000001 0.000001 0.000000 -0.000001 0.000001 0.000000 -0.000001 0.000001 0.000000 -0.000001 0.000001 0.000000 0.000000 -0.000000 -0.000000 0.000000 -0.000000 -0.000000 0.000000 -0.000000 -0.000000 0.000000 -0.000000 -0.000000 0.000000 -0.000000 -0.000000 0.000000 -0.000000 -0.000000 0.000000 -0.000000 -0.000000 -0.000000 0.000000 0.000000 0.000000 0.000000 0.000000 
0.030412 95.255920 4.367631 -3.823082 -5.686443 -3.277101 -0.000000 -0.000000 -0.000000 -14.910093 13.529123 12.713792 20.687041 2.171234 4.555075 -2.819225 1.118965 -9.537716 0.000000 -0.000001 -0.000000 -0.000000 0.000001 0.000000 4.244710 -10.114144 2.980085 4.949796 -8.626229 -3.404862 -4.659737 -2.480078 4.069698 0.000000 -0.000000 0.000000 0.000000 0.000000 -0.000000 3.311631 1.530369 2.151233 1.151564 0.341256 1.563088 1.124400 0.369600 1.558065 2.269209 -0.039483 0.175744 2.269211 -0.039484 0.175745 0.000000 0.000000 -0.000000 2.269283 -0.039486 0.175747 2.269212 -0.039484 0.175747 -0.000000 -0.000001 -0.000000 0.000000 0.000000 -0.000000 1.050084 -17.426983 -12.315072 3.834572 -20.228949 -69.793906 -0.000002 -1.533932 -0.000019 -33.143281 -1.469032 -6.193448 -0.859824 2.255367 5.016266 11.860738 25.426588 17.011025 0.000001 0.000001 -0.000003 0.045885 -0.951697 -7.554054 0.267773 1.752585 -17.372561 0.000001 -0.000001 -0.000003 -0.102326 2.568130 -15.649401 0.268289 1.754223 -17.389388 -0.000001 0.000001 0.000002 0.131294 3.629436 -21.184113 0.386308 2.093950 -20.903109 0.000001 -0.000000 -0.000002 0.904505 5.534727 -27.140453 0.268794 1.755839 -17.405976 -0.000000 0.000000 0.000001 0.000001 -0.000001 -0.000000 0.000001 -0.000001 -0.000000 0.000001 -0.000000 -0.000000 0.000001 -0.000001 -0.000000 0.000001 0.000000 0.000000 0.000001 -0.000001 -0.000000 -0.000000 0.000000 -0.000000 1.203737 15.373912 14.698707 13.129135 27.577813 58.738076 0.000003 6.568090 -0.000003 -20.190179 -0.555380 6.822984 -1.186845 1.249700 -2.178573 11.554246 -28.561300 -18.150381 -0.000001 -0.000003 0.000001 0.135005 1.320357 6.337461 0.192947 -1.327970 16.533031 0.000000 0.000001 -0.000000 -0.135118 -2.153219 14.386334 0.193474 -1.329760 16.555969 0.000003 -0.000001 0.000001 0.040902 -3.088784 20.111065 0.307200 -1.665014 20.905580 -0.000002 -0.000001 -0.000003 0.784880 -4.944868 26.073439 0.215512 -1.401702 17.480066 0.000001 -0.000002 0.000002 -0.000001 0.000000 -0.000000 -0.000001 0.000000 -0.000000 -0.000001 0.000000 -0.000000 0.000002 0.000000 0.000000 0.000002 0.000000 0.000001 0.000002 0.000000 0.000000 0.000002 -0.000000 0.000001 -0.000000 -0.000000 -0.000000 -0.000000 -0.000000 -0.000000 -0.000000 -0.000000 -0.000000 -0.000000 -0.000000 -0.000000 -0.000000 -0.000000 -0.000000 -0.000000 -0.000000 -0.000000 -0.000000 -0.000000 -0.000000 0.000000 0.000000 -0.000000 -0.000000 -0.000000 -0.000000 
